<svg width="316" height="1018" viewBox="0 0 316 1018" fill="none" xmlns="http://www.w3.org/2000/svg" xmlns:xlink="http://www.w3.org/1999/xlink">
<g clip-path="url(#clip0_889_1160)">
<circle cx="18.5" cy="17.7734" r="11.5" fill="white"/>
<circle cx="297.5" cy="18.7734" r="11.5" fill="white"/>
<g id="Repeat group 1_inner" data-figma-trr="l11u1-0f">
<circle cx="40.7727" cy="11.7727" r="11.7727" fill="white"/>
</g>
<use xlink:href="#Repeat%20group%201_inner" transform="translate(23.5455)"/>
<use xlink:href="#Repeat%20group%201_inner" transform="translate(47.0909)"/>
<use xlink:href="#Repeat%20group%201_inner" transform="translate(70.6364)"/>
<use xlink:href="#Repeat%20group%201_inner" transform="translate(94.1818)"/>
<use xlink:href="#Repeat%20group%201_inner" transform="translate(117.727)"/>
<use xlink:href="#Repeat%20group%201_inner" transform="translate(141.273)"/>
<use xlink:href="#Repeat%20group%201_inner" transform="translate(164.818)"/>
<use xlink:href="#Repeat%20group%201_inner" transform="translate(188.364)"/>
<use xlink:href="#Repeat%20group%201_inner" transform="translate(211.909)"/>
<use xlink:href="#Repeat%20group%201_inner" transform="translate(235.455)"/>
<g id="Repeat group 2_inner" data-figma-trr="l39u1-0f">
<circle cx="304.5" cy="39.7734" r="11.5" transform="rotate(90 304.5 39.7734)" fill="white"/>
</g>
<use xlink:href="#Repeat%20group%202_inner" transform="translate(0 23)"/>
<use xlink:href="#Repeat%20group%202_inner" transform="translate(0 46)"/>
<use xlink:href="#Repeat%20group%202_inner" transform="translate(0 69)"/>
<use xlink:href="#Repeat%20group%202_inner" transform="translate(0 92)"/>
<use xlink:href="#Repeat%20group%202_inner" transform="translate(0 115)"/>
<use xlink:href="#Repeat%20group%202_inner" transform="translate(0 138)"/>
<use xlink:href="#Repeat%20group%202_inner" transform="translate(0 161)"/>
<use xlink:href="#Repeat%20group%202_inner" transform="translate(0 184)"/>
<use xlink:href="#Repeat%20group%202_inner" transform="translate(0 207)"/>
<use xlink:href="#Repeat%20group%202_inner" transform="translate(0 230)"/>
<use xlink:href="#Repeat%20group%202_inner" transform="translate(0 253)"/>
<use xlink:href="#Repeat%20group%202_inner" transform="translate(0 276)"/>
<use xlink:href="#Repeat%20group%202_inner" transform="translate(0 299)"/>
<use xlink:href="#Repeat%20group%202_inner" transform="translate(0 322)"/>
<use xlink:href="#Repeat%20group%202_inner" transform="translate(0 345)"/>
<use xlink:href="#Repeat%20group%202_inner" transform="translate(0 368)"/>
<use xlink:href="#Repeat%20group%202_inner" transform="translate(0 391)"/>
<use xlink:href="#Repeat%20group%202_inner" transform="translate(0 414)"/>
<use xlink:href="#Repeat%20group%202_inner" transform="translate(0 437)"/>
<use xlink:href="#Repeat%20group%202_inner" transform="translate(0 460)"/>
<use xlink:href="#Repeat%20group%202_inner" transform="translate(0 483)"/>
<use xlink:href="#Repeat%20group%202_inner" transform="translate(0 506)"/>
<use xlink:href="#Repeat%20group%202_inner" transform="translate(0 529)"/>
<use xlink:href="#Repeat%20group%202_inner" transform="translate(0 552)"/>
<use xlink:href="#Repeat%20group%202_inner" transform="translate(0 575)"/>
<use xlink:href="#Repeat%20group%202_inner" transform="translate(0 598)"/>
<use xlink:href="#Repeat%20group%202_inner" transform="translate(0 621)"/>
<use xlink:href="#Repeat%20group%202_inner" transform="translate(0 644)"/>
<use xlink:href="#Repeat%20group%202_inner" transform="translate(0 667)"/>
<use xlink:href="#Repeat%20group%202_inner" transform="translate(0 690)"/>
<use xlink:href="#Repeat%20group%202_inner" transform="translate(0 713)"/>
<use xlink:href="#Repeat%20group%202_inner" transform="translate(0 736)"/>
<use xlink:href="#Repeat%20group%202_inner" transform="translate(0 759)"/>
<use xlink:href="#Repeat%20group%202_inner" transform="translate(0 782)"/>
<use xlink:href="#Repeat%20group%202_inner" transform="translate(0 805)"/>
<use xlink:href="#Repeat%20group%202_inner" transform="translate(0 828)"/>
<use xlink:href="#Repeat%20group%202_inner" transform="translate(0 851)"/>
<use xlink:href="#Repeat%20group%202_inner" transform="translate(0 874)"/>
<g id="Repeat group 3_inner" data-figma-trr="l40u1-0f">
<circle cx="11.5" cy="39.7734" r="11.5" transform="rotate(90 11.5 39.7734)" fill="white"/>
</g>
<use xlink:href="#Repeat%20group%203_inner" transform="translate(0 23)"/>
<use xlink:href="#Repeat%20group%203_inner" transform="translate(0 46)"/>
<use xlink:href="#Repeat%20group%203_inner" transform="translate(0 69)"/>
<use xlink:href="#Repeat%20group%203_inner" transform="translate(0 92)"/>
<use xlink:href="#Repeat%20group%203_inner" transform="translate(0 115)"/>
<use xlink:href="#Repeat%20group%203_inner" transform="translate(0 138)"/>
<use xlink:href="#Repeat%20group%203_inner" transform="translate(0 161)"/>
<use xlink:href="#Repeat%20group%203_inner" transform="translate(0 184)"/>
<use xlink:href="#Repeat%20group%203_inner" transform="translate(0 207)"/>
<use xlink:href="#Repeat%20group%203_inner" transform="translate(0 230)"/>
<use xlink:href="#Repeat%20group%203_inner" transform="translate(0 253)"/>
<use xlink:href="#Repeat%20group%203_inner" transform="translate(0 276)"/>
<use xlink:href="#Repeat%20group%203_inner" transform="translate(0 299)"/>
<use xlink:href="#Repeat%20group%203_inner" transform="translate(0 322)"/>
<use xlink:href="#Repeat%20group%203_inner" transform="translate(0 345)"/>
<use xlink:href="#Repeat%20group%203_inner" transform="translate(0 368)"/>
<use xlink:href="#Repeat%20group%203_inner" transform="translate(0 391)"/>
<use xlink:href="#Repeat%20group%203_inner" transform="translate(0 414)"/>
<use xlink:href="#Repeat%20group%203_inner" transform="translate(0 437)"/>
<use xlink:href="#Repeat%20group%203_inner" transform="translate(0 460)"/>
<use xlink:href="#Repeat%20group%203_inner" transform="translate(0 483)"/>
<use xlink:href="#Repeat%20group%203_inner" transform="translate(0 506)"/>
<use xlink:href="#Repeat%20group%203_inner" transform="translate(0 529)"/>
<use xlink:href="#Repeat%20group%203_inner" transform="translate(0 552)"/>
<use xlink:href="#Repeat%20group%203_inner" transform="translate(0 575)"/>
<use xlink:href="#Repeat%20group%203_inner" transform="translate(0 598)"/>
<use xlink:href="#Repeat%20group%203_inner" transform="translate(0 621)"/>
<use xlink:href="#Repeat%20group%203_inner" transform="translate(0 644)"/>
<use xlink:href="#Repeat%20group%203_inner" transform="translate(0 667)"/>
<use xlink:href="#Repeat%20group%203_inner" transform="translate(0 690)"/>
<use xlink:href="#Repeat%20group%203_inner" transform="translate(0 713)"/>
<use xlink:href="#Repeat%20group%203_inner" transform="translate(0 736)"/>
<use xlink:href="#Repeat%20group%203_inner" transform="translate(0 759)"/>
<use xlink:href="#Repeat%20group%203_inner" transform="translate(0 782)"/>
<use xlink:href="#Repeat%20group%203_inner" transform="translate(0 805)"/>
<use xlink:href="#Repeat%20group%203_inner" transform="translate(0 828)"/>
<use xlink:href="#Repeat%20group%203_inner" transform="translate(0 851)"/>
<use xlink:href="#Repeat%20group%203_inner" transform="translate(0 874)"/>
<use xlink:href="#Repeat%20group%203_inner" transform="translate(0 897)"/>
<g clip-path="url(#clip1_889_1160)">
<g filter="url(#filter0_i_889_1160)">
<rect x="12" y="15.2109" width="292" height="700" rx="32" fill="white"/>
</g>
<rect x="13" y="16.2109" width="290" height="698" rx="31" stroke="#475569" stroke-opacity="0.06" stroke-width="2"/>
<mask id="path-9-inside-1_889_1160" fill="white">
<path d="M216.268 55.2056C216.377 57.7406 218.434 59.8079 221.005 59.8903C223.577 59.9725 225.726 58.0395 225.953 55.515L230.758 55.6685C230.867 58.2037 232.923 60.2711 235.495 60.3533C238.066 60.4352 240.216 58.5023 240.443 55.978L245.246 56.1314C245.354 58.6665 247.411 60.734 249.982 60.8162C252.554 60.8982 254.704 58.9651 254.93 56.4409L259.735 56.5944C259.843 59.1294 261.9 61.1969 264.471 61.2791C267.043 61.3613 269.192 59.4282 269.419 56.9038L275.853 57.1094L275.617 67.2199C275.004 66.9124 274.316 66.7338 273.587 66.7193C270.981 66.6674 268.844 68.7386 268.814 71.3454C268.785 73.9523 270.874 76.1078 273.48 76.1598C274.169 76.1735 274.824 76.0369 275.418 75.783L275.21 84.6693C274.564 84.3184 273.828 84.1126 273.044 84.0969C270.438 84.0451 268.302 86.1161 268.272 88.7231C268.243 91.3299 270.331 93.4855 272.937 93.5374C273.68 93.5522 274.385 93.3932 275.013 93.0996L274.803 102.124C274.125 101.726 273.34 101.49 272.501 101.474C269.895 101.422 267.759 103.493 267.729 106.1C267.699 108.707 269.789 110.862 272.395 110.914C273.193 110.93 273.946 110.745 274.609 110.408L274.395 119.581C273.687 119.134 272.853 118.869 271.959 118.851C269.353 118.799 267.216 120.87 267.187 123.477C267.157 126.084 269.246 128.24 271.852 128.292C272.706 128.309 273.51 128.096 274.206 127.712L274.001 136.504L268.188 136.318C268.19 136.277 268.193 136.235 268.194 136.193C268.255 133.587 266.192 131.407 263.587 131.324C260.981 131.241 258.82 133.286 258.759 135.892C258.758 135.933 258.759 135.975 258.759 136.017L254.107 135.868C254.109 135.827 254.112 135.785 254.113 135.743C254.174 133.137 252.111 130.957 249.506 130.874C246.9 130.791 244.738 132.836 244.678 135.442C244.677 135.484 244.678 135.525 244.679 135.567L240.027 135.418C240.029 135.377 240.032 135.335 240.032 135.293C240.093 132.687 238.031 130.508 235.425 130.424C232.82 130.341 230.658 132.386 230.597 134.992C230.596 135.034 230.598 135.075 230.598 135.117L225.946 134.968C225.948 134.927 225.951 134.885 225.952 134.843C226.012 132.237 223.95 130.058 221.345 129.974C218.739 129.891 216.578 131.936 216.517 134.542C216.516 134.584 216.517 134.626 216.517 134.667L211.405 134.504L211.591 126.537C211.823 126.577 212.06 126.6 212.301 126.605C214.907 126.657 217.043 124.585 217.073 121.979C217.103 119.372 215.014 117.216 212.408 117.164C212.205 117.16 212.006 117.17 211.81 117.191L211.998 109.133C212.272 109.188 212.554 109.222 212.843 109.228C215.449 109.28 217.586 107.208 217.615 104.601C217.645 101.994 215.556 99.8386 212.95 99.7867C212.7 99.7817 212.455 99.7969 212.215 99.8296L212.404 91.7273C212.72 91.801 213.049 91.8439 213.386 91.8506C215.992 91.9023 218.129 89.8312 218.159 87.2244C218.188 84.6175 216.099 82.4619 213.492 82.41C213.195 82.4041 212.903 82.4268 212.62 82.474L212.81 74.3161C213.168 74.4107 213.543 74.4662 213.929 74.4739C216.535 74.5258 218.671 72.4538 218.701 69.8468C218.73 67.2401 216.642 65.0846 214.036 65.0325C213.689 65.0256 213.351 65.0569 213.025 65.1213L213.258 55.1094L216.268 55.2056Z"/>
</mask>
<path d="M216.268 55.2056C216.377 57.7406 218.434 59.8079 221.005 59.8903C223.577 59.9725 225.726 58.0395 225.953 55.515L230.758 55.6685C230.867 58.2037 232.923 60.2711 235.495 60.3533C238.066 60.4352 240.216 58.5023 240.443 55.978L245.246 56.1314C245.354 58.6665 247.411 60.734 249.982 60.8162C252.554 60.8982 254.704 58.9651 254.93 56.4409L259.735 56.5944C259.843 59.1294 261.9 61.1969 264.471 61.2791C267.043 61.3613 269.192 59.4282 269.419 56.9038L275.853 57.1094L275.617 67.2199C275.004 66.9124 274.316 66.7338 273.587 66.7193C270.981 66.6674 268.844 68.7386 268.814 71.3454C268.785 73.9523 270.874 76.1078 273.48 76.1598C274.169 76.1735 274.824 76.0369 275.418 75.783L275.21 84.6693C274.564 84.3184 273.828 84.1126 273.044 84.0969C270.438 84.0451 268.302 86.1161 268.272 88.7231C268.243 91.3299 270.331 93.4855 272.937 93.5374C273.68 93.5522 274.385 93.3932 275.013 93.0996L274.803 102.124C274.125 101.726 273.34 101.49 272.501 101.474C269.895 101.422 267.759 103.493 267.729 106.1C267.699 108.707 269.789 110.862 272.395 110.914C273.193 110.93 273.946 110.745 274.609 110.408L274.395 119.581C273.687 119.134 272.853 118.869 271.959 118.851C269.353 118.799 267.216 120.87 267.187 123.477C267.157 126.084 269.246 128.24 271.852 128.292C272.706 128.309 273.51 128.096 274.206 127.712L274.001 136.504L268.188 136.318C268.19 136.277 268.193 136.235 268.194 136.193C268.255 133.587 266.192 131.407 263.587 131.324C260.981 131.241 258.82 133.286 258.759 135.892C258.758 135.933 258.759 135.975 258.759 136.017L254.107 135.868C254.109 135.827 254.112 135.785 254.113 135.743C254.174 133.137 252.111 130.957 249.506 130.874C246.9 130.791 244.738 132.836 244.678 135.442C244.677 135.484 244.678 135.525 244.679 135.567L240.027 135.418C240.029 135.377 240.032 135.335 240.032 135.293C240.093 132.687 238.031 130.508 235.425 130.424C232.82 130.341 230.658 132.386 230.597 134.992C230.596 135.034 230.598 135.075 230.598 135.117L225.946 134.968C225.948 134.927 225.951 134.885 225.952 134.843C226.012 132.237 223.95 130.058 221.345 129.974C218.739 129.891 216.578 131.936 216.517 134.542C216.516 134.584 216.517 134.626 216.517 134.667L211.405 134.504L211.591 126.537C211.823 126.577 212.06 126.6 212.301 126.605C214.907 126.657 217.043 124.585 217.073 121.979C217.103 119.372 215.014 117.216 212.408 117.164C212.205 117.16 212.006 117.17 211.81 117.191L211.998 109.133C212.272 109.188 212.554 109.222 212.843 109.228C215.449 109.28 217.586 107.208 217.615 104.601C217.645 101.994 215.556 99.8386 212.95 99.7867C212.7 99.7817 212.455 99.7969 212.215 99.8296L212.404 91.7273C212.72 91.801 213.049 91.8439 213.386 91.8506C215.992 91.9023 218.129 89.8312 218.159 87.2244C218.188 84.6175 216.099 82.4619 213.492 82.41C213.195 82.4041 212.903 82.4268 212.62 82.474L212.81 74.3161C213.168 74.4107 213.543 74.4662 213.929 74.4739C216.535 74.5258 218.671 72.4538 218.701 69.8468C218.73 67.2401 216.642 65.0846 214.036 65.0325C213.689 65.0256 213.351 65.0569 213.025 65.1213L213.258 55.1094L216.268 55.2056Z" fill="#FFC7F2"/>
<path d="M216.268 55.2056L216.768 55.1885L216.748 54.7206L216.28 54.7057L216.268 55.2056ZM221.005 59.8903L220.993 60.3902L220.993 60.3902L221.005 59.8903ZM225.953 55.515L225.965 55.0151L225.497 55.0002L225.455 55.466L225.953 55.515ZM230.758 55.6685L231.258 55.6514L231.238 55.1836L230.77 55.1687L230.758 55.6685ZM235.495 60.3533L235.483 60.8531L235.483 60.8531L235.495 60.3533ZM240.443 55.978L240.454 55.4781L239.987 55.4632L239.945 55.929L240.443 55.978ZM245.246 56.1314L245.745 56.1143L245.725 55.6465L245.258 55.6316L245.246 56.1314ZM249.982 60.8162L249.971 61.316L249.971 61.316L249.982 60.8162ZM254.93 56.4409L254.942 55.941L254.474 55.9261L254.433 56.3919L254.93 56.4409ZM259.735 56.5944L260.234 56.5773L260.214 56.1095L259.746 56.0945L259.735 56.5944ZM264.471 61.2791L264.459 61.779L264.459 61.779L264.471 61.2791ZM269.419 56.9038L269.431 56.404L268.963 56.389L268.921 56.8548L269.419 56.9038ZM275.853 57.1094L276.353 57.1254L276.365 56.6255L275.865 56.6095L275.853 57.1094ZM275.617 67.2199L275.396 67.6666L276.099 68.0191L276.117 67.2359L275.617 67.2199ZM273.587 66.7193L273.592 66.2193L273.592 66.2193L273.587 66.7193ZM268.814 71.3454L268.315 71.3355L268.315 71.3355L268.814 71.3454ZM273.48 76.1598L273.474 76.6598L273.474 76.6598L273.48 76.1598ZM275.418 75.783L275.917 75.799L275.936 75.0157L275.218 75.3229L275.418 75.783ZM275.21 84.6693L274.975 85.1084L275.691 85.4972L275.71 84.6852L275.21 84.6693ZM273.044 84.0969L273.05 83.5969L273.05 83.5969L273.044 84.0969ZM268.272 88.7231L267.772 88.7131L267.772 88.7131L268.272 88.7231ZM272.937 93.5374L272.932 94.0374L272.932 94.0374L272.937 93.5374ZM275.013 93.0996L275.513 93.1156L275.532 92.3037L274.799 92.6461L275.013 93.0996ZM274.803 102.124L274.553 102.555L275.283 102.982L275.303 102.139L274.803 102.124ZM272.501 101.474L272.507 100.974L272.507 100.974L272.501 101.474ZM267.729 106.1L267.229 106.09L267.229 106.09L267.729 106.1ZM272.395 110.914L272.389 111.414L272.389 111.414L272.395 110.914ZM274.609 110.408L275.109 110.424L275.129 109.582L274.38 109.962L274.609 110.408ZM274.395 119.581L274.131 120.003L274.875 120.472L274.895 119.597L274.395 119.581ZM271.959 118.851L271.964 118.351L271.964 118.351L271.959 118.851ZM267.187 123.477L266.687 123.467L266.687 123.467L267.187 123.477ZM271.852 128.292L271.846 128.792L271.846 128.792L271.852 128.292ZM274.206 127.712L274.705 127.728L274.726 126.852L273.962 127.274L274.206 127.712ZM274.001 136.504L273.989 137.004L274.489 137.02L274.5 136.52L274.001 136.504ZM268.188 136.318L267.689 136.289L267.663 136.802L268.176 136.818L268.188 136.318ZM268.194 136.193L268.694 136.209L268.694 136.209L268.194 136.193ZM263.587 131.324L263.598 130.824L263.598 130.824L263.587 131.324ZM258.759 135.892L258.26 135.876L258.26 135.876L258.759 135.892ZM258.759 136.017L258.748 136.517L259.26 136.533L259.259 136.02L258.759 136.017ZM254.107 135.868L253.608 135.839L253.583 136.352L254.096 136.368L254.107 135.868ZM254.113 135.743L254.613 135.759V135.759L254.113 135.743ZM249.506 130.874L249.518 130.374L249.518 130.374L249.506 130.874ZM244.678 135.442L244.178 135.426V135.426L244.678 135.442ZM244.679 135.567L244.667 136.067L245.18 136.083L245.178 135.57L244.679 135.567ZM240.027 135.418L239.527 135.389L239.502 135.902L240.015 135.918L240.027 135.418ZM240.032 135.293L240.532 135.309V135.309L240.032 135.293ZM235.425 130.424L235.437 129.924L235.437 129.924L235.425 130.424ZM230.597 134.992L230.097 134.976V134.976L230.597 134.992ZM230.598 135.117L230.586 135.617L231.099 135.633L231.098 135.12L230.598 135.117ZM225.946 134.968L225.447 134.939L225.421 135.452L225.934 135.468L225.946 134.968ZM225.952 134.843L226.452 134.859L226.452 134.859L225.952 134.843ZM221.345 129.974L221.356 129.474L221.356 129.474L221.345 129.974ZM216.517 134.542L216.017 134.526L216.017 134.526L216.517 134.542ZM216.517 134.667L216.505 135.167L217.018 135.183L217.017 134.67L216.517 134.667ZM211.405 134.504L210.906 134.488L210.894 134.988L211.394 135.004L211.405 134.504ZM211.591 126.537L211.672 126.044L211.105 125.947L211.092 126.521L211.591 126.537ZM212.301 126.605L212.295 127.105L212.295 127.105L212.301 126.605ZM217.073 121.979L217.573 121.989L217.573 121.989L217.073 121.979ZM212.408 117.164L212.414 116.664L212.414 116.664L212.408 117.164ZM211.81 117.191L211.31 117.175L211.296 117.749L211.867 117.688L211.81 117.191ZM211.998 109.133L212.092 108.643L211.512 108.525L211.498 109.117L211.998 109.133ZM212.843 109.228L212.838 109.728L212.838 109.728L212.843 109.228ZM217.615 104.601L218.115 104.611L218.115 104.611L217.615 104.601ZM212.95 99.7867L212.956 99.2867L212.956 99.2867L212.95 99.7867ZM212.215 99.8296L211.715 99.8137L211.701 100.405L212.286 100.325L212.215 99.8296ZM212.404 91.7273L212.513 91.2403L211.918 91.1019L211.904 91.7114L212.404 91.7273ZM213.386 91.8506L213.381 92.3506L213.381 92.3506L213.386 91.8506ZM218.159 87.2244L218.658 87.2344L218.658 87.2344L218.159 87.2244ZM213.492 82.41L213.498 81.91L213.498 81.91L213.492 82.41ZM212.62 82.474L212.12 82.458L212.106 83.0674L212.706 82.9673L212.62 82.474ZM212.81 74.3161L212.934 73.8326L212.325 73.6717L212.31 74.3001L212.81 74.3161ZM213.929 74.4739L213.923 74.974L213.923 74.974L213.929 74.4739ZM218.701 69.8468L219.201 69.8568L219.201 69.8567L218.701 69.8468ZM214.036 65.0325L214.041 64.5324L214.041 64.5324L214.036 65.0325ZM213.025 65.1213L212.525 65.1053L212.51 65.7336L213.126 65.612L213.025 65.1213ZM213.258 55.1094L213.27 54.6095L212.77 54.5935L212.759 55.0934L213.258 55.1094ZM216.268 55.2056L215.769 55.2226C215.889 58.019 218.157 60.2993 220.993 60.3902L221.005 59.8903L221.017 59.3904C218.71 59.3166 216.865 57.4622 216.768 55.1885L216.268 55.2056ZM221.005 59.8903L220.993 60.3902C223.83 60.4808 226.201 58.3486 226.451 55.564L225.953 55.515L225.455 55.466C225.252 57.7303 223.323 59.4641 221.017 59.3904L221.005 59.8903ZM225.953 55.515L225.941 56.0149L230.746 56.1684L230.758 55.6685L230.77 55.1687L225.965 55.0151L225.953 55.515ZM230.758 55.6685L230.259 55.6856C230.378 58.4821 232.646 60.7625 235.483 60.8531L235.495 60.3533L235.506 59.8534C233.2 59.7797 231.355 57.9253 231.258 55.6514L230.758 55.6685ZM235.495 60.3533L235.483 60.8531C238.32 60.9435 240.691 58.8115 240.941 56.0269L240.443 55.978L239.945 55.929C239.742 58.1932 237.813 59.9269 235.506 59.8534L235.495 60.3533ZM240.443 55.978L240.431 56.4778L245.234 56.6313L245.246 56.1314L245.258 55.6316L240.454 55.4781L240.443 55.978ZM245.246 56.1314L244.746 56.1486C244.866 58.9448 247.134 61.2254 249.971 61.316L249.982 60.8162L249.994 60.3163C247.688 60.2426 245.843 58.3881 245.745 56.1143L245.246 56.1314ZM249.982 60.8162L249.971 61.316C252.807 61.4065 255.178 59.2743 255.428 56.4899L254.93 56.4409L254.433 56.3919C254.229 58.656 252.3 60.3899 249.994 60.3163L249.982 60.8162ZM254.93 56.4409L254.919 56.9407L259.723 57.0942L259.735 56.5944L259.746 56.0945L254.942 55.941L254.93 56.4409ZM259.735 56.5944L259.235 56.6115C259.355 59.4078 261.623 61.6882 264.459 61.779L264.471 61.2791L264.483 60.7793C262.176 60.7055 260.331 58.851 260.234 56.5773L259.735 56.5944ZM264.471 61.2791L264.459 61.779C267.296 61.8696 269.667 59.7373 269.917 56.9528L269.419 56.9038L268.921 56.8548C268.718 59.1191 266.789 60.8529 264.483 60.7793L264.471 61.2791ZM269.419 56.9038L269.407 57.4037L275.842 57.6093L275.853 57.1094L275.865 56.6095L269.431 56.404L269.419 56.9038ZM275.853 57.1094L275.354 57.0934L275.118 67.204L275.617 67.2199L276.117 67.2359L276.353 57.1254L275.853 57.1094ZM275.617 67.2199L275.838 66.7733C275.16 66.4327 274.397 66.2353 273.592 66.2193L273.587 66.7193L273.581 67.2193C274.234 67.2323 274.849 67.3921 275.396 67.6666L275.617 67.2199ZM273.587 66.7193L273.592 66.2193C270.71 66.1619 268.347 68.4525 268.315 71.3355L268.814 71.3454L269.314 71.3554C269.341 69.0247 271.251 67.1729 273.581 67.2193L273.587 66.7193ZM268.814 71.3454L268.315 71.3355C268.282 74.2185 270.592 76.6023 273.474 76.6598L273.48 76.1598L273.485 75.6598C271.155 75.6133 269.288 73.6861 269.314 71.3554L268.814 71.3454ZM273.48 76.1598L273.474 76.6598C274.236 76.675 274.962 76.5237 275.617 76.2431L275.418 75.783L275.218 75.3229C274.687 75.55 274.101 75.672 273.485 75.6598L273.48 76.1598ZM275.418 75.783L274.918 75.7671L274.71 84.6533L275.21 84.6693L275.71 84.6852L275.917 75.799L275.418 75.783ZM275.21 84.6693L275.446 84.2302C274.73 83.8419 273.915 83.6142 273.05 83.5969L273.044 84.0969L273.039 84.5969C273.74 84.6109 274.397 84.795 274.975 85.1084L275.21 84.6693ZM273.044 84.0969L273.05 83.5969C270.168 83.5395 267.805 85.8299 267.772 88.7131L268.272 88.7231L268.772 88.733C268.798 86.4022 270.709 84.5506 273.039 84.5969L273.044 84.0969ZM268.272 88.7231L267.772 88.7131C267.74 91.5961 270.049 93.9801 272.932 94.0374L272.937 93.5374L272.943 93.0374C270.613 92.991 268.746 91.0638 268.772 88.733L268.272 88.7231ZM272.937 93.5374L272.932 94.0374C273.753 94.0538 274.533 93.8778 275.228 93.5531L275.013 93.0996L274.799 92.6461C274.237 92.9085 273.608 93.0506 272.943 93.0374L272.937 93.5374ZM275.013 93.0996L274.514 93.0836L274.303 102.108L274.803 102.124L275.303 102.139L275.513 93.1156L275.013 93.0996ZM274.803 102.124L275.053 101.693C274.303 101.253 273.434 100.992 272.507 100.974L272.501 101.474L272.495 101.974C273.246 101.988 273.947 102.199 274.553 102.555L274.803 102.124ZM272.501 101.474L272.507 100.974C269.625 100.916 267.262 103.207 267.229 106.09L267.729 106.1L268.229 106.11C268.255 103.779 270.166 101.927 272.495 101.974L272.501 101.474ZM267.729 106.1L267.229 106.09C267.197 108.973 269.507 111.357 272.389 111.414L272.395 110.914L272.401 110.414C270.071 110.368 268.202 108.44 268.229 106.11L267.729 106.1ZM272.395 110.914L272.389 111.414C273.272 111.432 274.106 111.227 274.839 110.855L274.609 110.408L274.38 109.962C273.787 110.263 273.114 110.428 272.401 110.414L272.395 110.914ZM274.609 110.408L274.11 110.392L273.896 119.565L274.395 119.581L274.895 119.597L275.109 110.424L274.609 110.408ZM274.395 119.581L274.66 119.158C273.876 118.664 272.953 118.371 271.964 118.351L271.959 118.851L271.953 119.351C272.754 119.367 273.499 119.604 274.131 120.003L274.395 119.581ZM271.959 118.851L271.964 118.351C269.082 118.294 266.719 120.584 266.687 123.467L267.187 123.477L267.686 123.487C267.713 121.156 269.623 119.305 271.953 119.351L271.959 118.851ZM267.187 123.477L266.687 123.467C266.654 126.35 268.964 128.734 271.846 128.792L271.852 128.292L271.857 127.792C269.528 127.745 267.66 125.818 267.686 123.487L267.187 123.477ZM271.852 128.292L271.846 128.792C272.791 128.81 273.68 128.575 274.45 128.151L274.206 127.712L273.962 127.274C273.339 127.617 272.621 127.807 271.857 127.792L271.852 128.292ZM274.206 127.712L273.706 127.696L273.501 136.488L274.001 136.504L274.5 136.52L274.705 127.728L274.206 127.712ZM274.001 136.504L274.012 136.004L268.2 135.818L268.188 136.318L268.176 136.818L273.989 137.004L274.001 136.504ZM268.188 136.318L268.687 136.347C268.689 136.318 268.692 136.259 268.694 136.209L268.194 136.193L267.694 136.177C267.693 136.211 267.691 136.235 267.689 136.289L268.188 136.318ZM268.194 136.193L268.694 136.209C268.761 133.327 266.48 130.916 263.598 130.824L263.587 131.324L263.575 131.824C265.904 131.898 267.748 133.847 267.694 136.177L268.194 136.193ZM263.587 131.324L263.598 130.824C260.717 130.732 258.327 132.994 258.26 135.876L258.759 135.892L259.259 135.908C259.313 133.578 261.246 131.749 263.575 131.824L263.587 131.324ZM258.759 135.892L258.26 135.876C258.258 135.926 258.259 135.985 258.259 136.014L258.759 136.017L259.259 136.02C259.259 135.966 259.258 135.941 259.259 135.908L258.759 135.892ZM258.759 136.017L258.771 135.517L254.119 135.368L254.107 135.868L254.096 136.368L258.748 136.517L258.759 136.017ZM254.107 135.868L254.607 135.897C254.608 135.868 254.612 135.81 254.613 135.759L254.113 135.743L253.613 135.727C253.613 135.761 253.611 135.785 253.608 135.839L254.107 135.868ZM254.113 135.743L254.613 135.759C254.68 132.877 252.399 130.466 249.518 130.374L249.506 130.874L249.494 131.374C251.824 131.448 253.668 133.397 253.613 135.727L254.113 135.743ZM249.506 130.874L249.518 130.374C246.636 130.282 244.245 132.544 244.178 135.426L244.678 135.442L245.177 135.458C245.232 133.128 247.165 131.3 249.494 131.374L249.506 130.874ZM244.678 135.442L244.178 135.426C244.177 135.471 244.179 135.556 244.179 135.564L244.679 135.567L245.178 135.57C245.178 135.495 245.176 135.496 245.177 135.458L244.678 135.442ZM244.679 135.567L244.69 135.067L240.038 134.918L240.027 135.418L240.015 135.918L244.667 136.067L244.679 135.567ZM240.027 135.418L240.526 135.447C240.527 135.418 240.531 135.36 240.532 135.309L240.032 135.293L239.533 135.277C239.532 135.311 239.53 135.335 239.527 135.389L240.027 135.418ZM240.032 135.293L240.532 135.309C240.599 132.427 238.318 130.017 235.437 129.924L235.425 130.424L235.414 130.924C237.743 130.999 239.587 132.947 239.533 135.277L240.032 135.293ZM235.425 130.424L235.437 129.924C232.556 129.832 230.164 132.094 230.097 134.976L230.597 134.992L231.097 135.008C231.151 132.678 233.084 130.85 235.414 130.924L235.425 130.424ZM230.597 134.992L230.097 134.976C230.096 135.021 230.098 135.106 230.098 135.114L230.598 135.117L231.098 135.12C231.098 135.045 231.096 135.046 231.097 135.008L230.597 134.992ZM230.598 135.117L230.61 134.617L225.958 134.469L225.946 134.968L225.934 135.468L230.586 135.617L230.598 135.117ZM225.946 134.968L226.445 134.997C226.447 134.968 226.45 134.91 226.452 134.859L225.952 134.843L225.452 134.828C225.451 134.861 225.449 134.886 225.447 134.939L225.946 134.968ZM225.952 134.843L226.452 134.859C226.519 131.977 224.238 129.567 221.356 129.474L221.345 129.974L221.333 130.474C223.662 130.549 225.506 132.498 225.452 134.828L225.952 134.843ZM221.345 129.974L221.356 129.474C218.475 129.382 216.085 131.644 216.017 134.526L216.517 134.542L217.017 134.558C217.071 132.228 219.003 130.4 221.333 130.474L221.345 129.974ZM216.517 134.542L216.017 134.526C216.016 134.576 216.017 134.635 216.017 134.664L216.517 134.667L217.017 134.67C217.017 134.616 217.016 134.591 217.017 134.558L216.517 134.542ZM216.517 134.667L216.529 134.167L211.417 134.004L211.405 134.504L211.394 135.004L216.505 135.167L216.517 134.667ZM211.405 134.504L211.905 134.52L212.091 126.553L211.591 126.537L211.092 126.521L210.906 134.488L211.405 134.504ZM211.591 126.537L211.511 127.03C211.767 127.074 212.028 127.099 212.295 127.105L212.301 126.605L212.307 126.105C212.091 126.1 211.879 126.08 211.672 126.044L211.591 126.537ZM212.301 126.605L212.295 127.105C215.177 127.162 217.54 124.872 217.573 121.989L217.073 121.979L216.573 121.969C216.547 124.299 214.637 126.151 212.307 126.105L212.301 126.605ZM217.073 121.979L217.573 121.989C217.605 119.106 215.296 116.722 212.414 116.664L212.408 117.164L212.402 117.664C214.732 117.711 216.6 119.638 216.573 121.969L217.073 121.979ZM212.408 117.164L212.414 116.664C212.188 116.66 211.967 116.671 211.752 116.694L211.81 117.191L211.867 117.688C212.044 117.67 212.223 117.661 212.402 117.664L212.408 117.164ZM211.81 117.191L212.309 117.207L212.497 109.149L211.998 109.133L211.498 109.117L211.31 117.175L211.81 117.191ZM211.998 109.133L211.903 109.623C212.203 109.684 212.515 109.722 212.838 109.728L212.843 109.228L212.849 108.728C212.593 108.723 212.341 108.693 212.092 108.643L211.998 109.133ZM212.843 109.228L212.838 109.728C215.72 109.786 218.083 107.494 218.115 104.611L217.615 104.601L217.116 104.591C217.089 106.922 215.179 108.775 212.849 108.728L212.843 109.228ZM217.615 104.601L218.115 104.611C218.148 101.728 215.838 99.344 212.956 99.2867L212.95 99.7867L212.945 100.287C215.274 100.333 217.142 102.26 217.116 104.591L217.615 104.601ZM212.95 99.7867L212.956 99.2867C212.679 99.2812 212.408 99.298 212.143 99.3341L212.215 99.8296L212.286 100.325C212.502 100.296 212.721 100.282 212.945 100.287L212.95 99.7867ZM212.215 99.8296L212.714 99.8456L212.904 91.7433L212.404 91.7273L211.904 91.7114L211.715 99.8137L212.215 99.8296ZM212.404 91.7273L212.295 92.2144C212.644 92.2957 213.007 92.3432 213.381 92.3506L213.386 91.8506L213.392 91.3506C213.091 91.3446 212.797 91.3062 212.513 91.2403L212.404 91.7273ZM213.386 91.8506L213.381 92.3506C216.263 92.4077 218.626 90.1174 218.658 87.2344L218.159 87.2244L217.659 87.2145C217.632 89.545 215.722 91.3968 213.392 91.3506L213.386 91.8506ZM218.159 87.2244L218.658 87.2344C218.691 84.3512 216.38 81.9674 213.498 81.91L213.492 82.41L213.487 82.9101C215.817 82.9564 217.685 84.8837 217.659 87.2145L218.159 87.2244ZM213.492 82.41L213.498 81.91C213.168 81.9035 212.846 81.9286 212.533 81.9807L212.62 82.474L212.706 82.9673C212.96 82.925 213.221 82.9048 213.487 82.9101L213.492 82.41ZM212.62 82.474L213.119 82.49L213.31 74.332L212.81 74.3161L212.31 74.3001L212.12 82.458L212.62 82.474ZM212.81 74.3161L212.686 74.7995C213.081 74.9039 213.495 74.9654 213.923 74.974L213.929 74.4739L213.934 73.9739C213.59 73.9671 213.255 73.9175 212.934 73.8326L212.81 74.3161ZM213.929 74.4739L213.923 74.974C216.805 75.0313 219.168 72.7398 219.201 69.8568L218.701 69.8468L218.201 69.8369C218.175 72.1677 216.264 74.0203 213.934 73.9739L213.929 74.4739ZM218.701 69.8468L219.201 69.8567C219.233 66.9739 216.923 64.5901 214.041 64.5324L214.036 65.0325L214.03 65.5325C216.36 65.5791 218.227 67.5063 218.201 69.8369L218.701 69.8468ZM214.036 65.0325L214.041 64.5324C213.658 64.5248 213.284 64.5594 212.924 64.6306L213.025 65.1213L213.126 65.612C213.417 65.5543 213.72 65.5263 214.03 65.5325L214.036 65.0325ZM213.025 65.1213L213.524 65.1373L213.758 55.1253L213.258 55.1094L212.759 55.0934L212.525 65.1053L213.025 65.1213ZM213.258 55.1094L213.247 55.6092L216.257 55.7054L216.268 55.2056L216.28 54.7057L213.27 54.6095L213.258 55.1094Z" fill="#EBB5DE" mask="url(#path-9-inside-1_889_1160)"/>
<path d="M51.2438 50.2509C51.2438 50.7923 51.3978 51.0629 51.7058 51.0629C51.7245 51.0629 51.7618 51.0629 51.8178 51.0629C51.8831 51.0536 51.9438 51.0443 51.9998 51.0349C52.0651 51.0349 52.1445 51.0303 52.2378 51.0209C52.3311 51.0116 52.3685 51.0069 52.3498 51.0069C52.5271 51.0069 52.6811 51.0723 52.8118 51.2029C52.9425 51.3243 53.0078 51.4643 53.0078 51.6229C53.0078 52.0616 52.7325 52.2809 52.1818 52.2809H52.0698C52.0418 52.2716 52.0091 52.2669 51.9718 52.2669L51.2998 52.1689C51.1691 52.1503 51.0385 52.1363 50.9078 52.1269C50.7771 52.1176 50.6418 52.1129 50.5018 52.1129C50.3431 52.1129 50.1891 52.1176 50.0398 52.1269C49.8905 52.1363 49.7505 52.1503 49.6198 52.1689L48.9478 52.2669C48.9105 52.2669 48.8825 52.2716 48.8638 52.2809H48.7378C48.1871 52.2809 47.9118 52.0616 47.9118 51.6229C47.9118 51.2123 48.1311 51.0069 48.5698 51.0069C48.5511 51.0069 48.5885 51.0116 48.6818 51.0209C48.7845 51.0303 48.8638 51.0349 48.9198 51.0349C48.9851 51.0443 49.0458 51.0536 49.1018 51.0629C49.1578 51.0629 49.1951 51.0629 49.2138 51.0629C49.5125 51.0629 49.6618 50.7923 49.6618 50.2509V49.3129L49.6758 48.1229V46.9889L49.6618 44.7909C49.6618 44.2776 49.4098 44.0209 48.9058 44.0209H48.4998C48.0051 44.0209 47.7578 44.2729 47.7578 44.7769C47.7578 44.8889 47.7578 44.9823 47.7578 45.0569C47.7578 45.1223 47.7625 45.1783 47.7718 45.2249L47.8278 45.7009C47.8371 45.7476 47.8418 45.8036 47.8418 45.8689C47.8418 45.9343 47.8418 45.9996 47.8418 46.0649C47.8418 46.7556 47.5898 47.1009 47.0858 47.1009C46.6005 47.1009 46.3578 46.8349 46.3578 46.3029C46.3578 46.2656 46.3578 46.2096 46.3578 46.1349C46.3578 46.0603 46.3625 45.9903 46.3718 45.9249C46.3718 45.8969 46.3718 45.8643 46.3718 45.8269C46.3811 45.7803 46.3858 45.7336 46.3858 45.6869C46.4138 45.2669 46.4278 44.9963 46.4278 44.8749C46.4278 44.7723 46.4231 44.6649 46.4138 44.5529C46.4138 44.4409 46.4091 44.3196 46.3998 44.1889L46.3578 43.7829C46.3485 43.7269 46.3485 43.6989 46.3578 43.6989C46.3671 43.6989 46.3625 43.6569 46.3438 43.5729C46.3438 43.0689 46.5911 42.8169 47.0858 42.8169C47.1418 42.8169 47.2445 42.8216 47.3938 42.8309C47.5525 42.8309 47.7438 42.8403 47.9678 42.8589H48.0798C48.1638 42.8589 48.2851 42.8636 48.4438 42.8729C48.6118 42.8729 48.8171 42.8776 49.0598 42.8869C49.3118 42.8869 49.5638 42.8916 49.8158 42.9009C50.0771 42.9103 50.3338 42.9149 50.5858 42.9149C50.6325 42.9149 50.7025 42.9149 50.7958 42.9149C50.8891 42.9056 51.0011 42.9009 51.1318 42.9009C51.2438 42.9009 51.3745 42.9009 51.5238 42.9009C51.6731 42.8916 51.8411 42.8869 52.0278 42.8869C52.1865 42.8869 52.4758 42.8729 52.8958 42.8449C53.0545 42.8263 53.2131 42.8169 53.3718 42.8169C53.5305 42.8076 53.6611 42.8029 53.7638 42.8029C54.3611 42.8029 54.6598 43.0596 54.6598 43.5729C54.6598 43.6663 54.6458 43.8389 54.6178 44.0909C54.5991 44.3336 54.5805 44.5903 54.5618 44.8609V45.0009C54.5618 45.0569 54.5618 45.1409 54.5618 45.2529C54.5618 45.3556 54.5711 45.4769 54.5898 45.6169C54.6085 45.8036 54.6225 45.9576 54.6318 46.0789C54.6411 46.2003 54.6458 46.2843 54.6458 46.3309C54.6458 46.8163 54.3938 47.0589 53.8898 47.0589C53.4045 47.0589 53.1618 46.7743 53.1618 46.2049C53.1618 46.0463 53.1758 45.8036 53.2038 45.4769C53.2131 45.3183 53.2178 45.1783 53.2178 45.0569C53.2271 44.9356 53.2318 44.8376 53.2318 44.7629C53.2318 44.2683 52.9565 44.0209 52.4058 44.0209H52.0278C51.7851 44.0209 51.6078 44.0816 51.4958 44.2029C51.3838 44.3243 51.3185 44.5063 51.2998 44.7489L51.2578 45.6869L51.2438 50.2509ZM58.5244 52.4349C57.5258 52.4349 56.7278 52.0943 56.1304 51.4129C55.5331 50.7316 55.2344 49.8309 55.2344 48.7109C55.2344 47.5816 55.5331 46.6856 56.1304 46.0229C56.7278 45.3323 57.5398 44.9869 58.5664 44.9869C59.5931 44.9869 60.4098 45.3229 61.0164 45.9949C61.6044 46.6576 61.8984 47.5489 61.8984 48.6689C61.8984 49.8076 61.5951 50.7129 60.9884 51.3849C60.3818 52.0849 59.5604 52.4349 58.5244 52.4349ZM58.5944 46.2329C58.0344 46.2329 57.5958 46.4336 57.2784 46.8349C56.9704 47.2363 56.8024 47.8103 56.7744 48.5569V48.7109C56.7744 49.4856 56.9284 50.0923 57.2364 50.5309C57.5444 50.9696 57.9784 51.1889 58.5384 51.1889C59.1078 51.1889 59.5558 50.9743 59.8824 50.5449C60.2184 50.1063 60.3864 49.4903 60.3864 48.6969C60.3864 47.0543 59.7891 46.2329 58.5944 46.2329ZM64.361 52.4349C64.0624 52.4349 63.8104 52.3369 63.605 52.1409C63.3997 51.9449 63.297 51.6976 63.297 51.3989C63.297 51.1096 63.3997 50.8669 63.605 50.6709C63.8104 50.4656 64.0624 50.3629 64.361 50.3629C64.6597 50.3629 64.9117 50.4656 65.117 50.6709C65.3224 50.8669 65.425 51.1096 65.425 51.3989C65.425 51.6976 65.3224 51.9449 65.117 52.1409C64.9117 52.3369 64.6597 52.4349 64.361 52.4349ZM64.361 47.8989C64.0624 47.8989 63.8104 47.8009 63.605 47.6049C63.3997 47.3996 63.297 47.1523 63.297 46.8629C63.297 46.5736 63.3997 46.3309 63.605 46.1349C63.8104 45.9296 64.0624 45.8269 64.361 45.8269C64.6597 45.8269 64.9117 45.9296 65.117 46.1349C65.3224 46.3309 65.425 46.5736 65.425 46.8629C65.425 47.1523 65.3224 47.3996 65.117 47.6049C64.9117 47.8009 64.6597 47.8989 64.361 47.8989ZM76.2671 49.2569C76.2298 49.1636 76.1925 49.1076 76.1551 49.0889C76.1271 49.0609 76.0618 49.0469 75.9591 49.0469H73.5651C73.4531 49.0469 73.3738 49.0749 73.3271 49.1309C73.2898 49.1776 73.2291 49.3129 73.1451 49.5369L72.7531 50.5869C72.7251 50.6616 72.7111 50.7269 72.7111 50.7829C72.7111 50.9509 72.8091 51.0349 73.0051 51.0349C73.0425 51.0349 73.0938 51.0349 73.1591 51.0349C73.2245 51.0256 73.2945 51.0163 73.3691 51.0069C73.4438 50.9976 73.5138 50.9929 73.5791 50.9929C73.6445 50.9836 73.7051 50.9789 73.7611 50.9789C74.2838 50.9789 74.5451 51.1983 74.5451 51.6369C74.5451 52.0569 74.2651 52.2669 73.7051 52.2669C73.6678 52.2669 73.6258 52.2623 73.5791 52.2529C73.5325 52.2529 73.4858 52.2483 73.4391 52.2389H73.3831L72.7111 52.1409C72.6551 52.1316 72.5711 52.1269 72.4591 52.1269C72.3471 52.1176 72.2351 52.1129 72.1231 52.1129C71.9925 52.1129 71.8665 52.1176 71.7451 52.1269C71.6331 52.1269 71.5491 52.1316 71.4931 52.1409L70.9331 52.2249C70.8118 52.2436 70.6998 52.2576 70.5971 52.2669C70.5038 52.2763 70.4198 52.2809 70.3451 52.2809C69.8411 52.2809 69.5891 52.0709 69.5891 51.6509C69.5891 51.2123 69.8365 50.9929 70.3311 50.9929C70.3778 50.9929 70.4105 50.9929 70.4291 50.9929C70.4571 50.9836 70.4945 50.9883 70.5411 51.0069H70.6671C70.8165 51.0069 70.9331 50.9416 71.0171 50.8109C71.0731 50.7363 71.1571 50.5356 71.2691 50.2089L73.7751 43.4469C73.9431 42.9896 74.2978 42.7609 74.8391 42.7609C75.3618 42.7609 75.7071 42.9896 75.8751 43.4469L78.2831 50.1109C78.4138 50.4749 78.5258 50.7223 78.6191 50.8529C78.7218 50.9743 78.8525 51.0349 79.0111 51.0349C79.0765 51.0349 79.1231 51.0303 79.1511 51.0209C79.2165 51.0209 79.2678 51.0209 79.3051 51.0209C79.3518 51.0116 79.3938 51.0069 79.4311 51.0069C79.4685 51.0069 79.5011 51.0023 79.5291 50.9929C80.0425 50.9929 80.2991 51.1983 80.2991 51.6089C80.2991 52.0383 80.0518 52.2529 79.5571 52.2529C79.5105 52.2529 79.4545 52.2529 79.3891 52.2529C79.3331 52.2529 79.2818 52.2483 79.2351 52.2389C79.2165 52.2389 79.1978 52.2343 79.1791 52.2249C79.1605 52.2249 79.1465 52.2249 79.1371 52.2249C78.8571 52.1876 78.6145 52.1643 78.4091 52.1549C78.2038 52.1363 78.0358 52.1269 77.9051 52.1269C77.7465 52.1269 77.5318 52.1363 77.2611 52.1549C76.9998 52.1736 76.6825 52.2016 76.3091 52.2389C76.2905 52.2389 76.2671 52.2389 76.2391 52.2389C76.2205 52.2483 76.2018 52.2529 76.1831 52.2529C76.1271 52.2623 76.0665 52.2669 76.0011 52.2669C75.9451 52.2669 75.8985 52.2669 75.8611 52.2669C75.3478 52.2669 75.0911 52.0523 75.0911 51.6229C75.0911 51.1936 75.3665 50.9789 75.9171 50.9789C75.9638 50.9789 76.0198 50.9836 76.0851 50.9929C76.1505 50.9929 76.2205 50.9976 76.2951 51.0069C76.3605 51.0163 76.4258 51.0256 76.4911 51.0349C76.5565 51.0349 76.6031 51.0349 76.6311 51.0349C76.7711 51.0349 76.8411 50.9743 76.8411 50.8529C76.8411 50.8436 76.8365 50.8249 76.8271 50.7969C76.8178 50.7689 76.8038 50.7316 76.7851 50.6849L76.7431 50.5589V50.5729L76.2671 49.2569ZM73.7471 47.8989C73.7378 47.9083 73.7331 47.9036 73.7331 47.8849L73.7471 47.8989ZM73.7331 47.8849C73.7331 47.8663 73.7331 47.8523 73.7331 47.8429C73.7425 47.8243 73.7471 47.8243 73.7471 47.8429C73.7378 47.8523 73.7331 47.8616 73.7331 47.8709V47.8849ZM73.7471 47.8289C73.7471 47.8196 73.7378 47.8056 73.7191 47.7869H73.7611C73.7518 47.7963 73.7471 47.8103 73.7471 47.8289ZM75.7911 47.8569C75.7818 47.8476 75.7771 47.8383 75.7771 47.8289C75.7771 47.8196 75.7725 47.8056 75.7631 47.7869H75.8471C75.8098 47.8056 75.7911 47.8289 75.7911 47.8569ZM74.7831 44.7629C74.6058 45.2669 74.4285 45.7709 74.2511 46.2749C74.0831 46.7789 73.9198 47.2829 73.7611 47.7869H75.7631V47.7589L74.7831 44.7629ZM82.5545 45.2249C82.8998 45.2249 83.1005 45.3696 83.1565 45.6589C83.6605 45.2109 84.2951 44.9869 85.0605 44.9869C85.5831 44.9869 86.0731 45.1176 86.5305 45.3789H86.5165C87.0018 45.6589 87.3238 45.9903 87.4825 46.3729C87.6225 46.6996 87.6925 47.1149 87.6925 47.6189V50.1389V50.7969C87.7018 50.9463 87.7345 51.0396 87.7905 51.0769C87.8371 51.0769 87.8978 51.0769 87.9725 51.0769C88.0471 51.0676 88.1078 51.0583 88.1545 51.0489C88.2011 51.0396 88.2431 51.0349 88.2805 51.0349C88.3178 51.0256 88.3645 51.0209 88.4205 51.0209C88.5885 51.0209 88.7378 51.0816 88.8685 51.2029C88.9991 51.3149 89.0645 51.4503 89.0645 51.6089C89.0645 51.7956 88.9898 51.9543 88.8405 52.0849C88.6911 52.2063 88.5091 52.2669 88.2945 52.2669C88.2478 52.2669 88.1731 52.2623 88.0705 52.2529C87.9771 52.2529 87.8791 52.2436 87.7765 52.2249C87.6365 52.2063 87.4825 52.1923 87.3145 52.1829C87.1558 52.1643 87.0158 52.1549 86.8945 52.1549C86.8011 52.1549 86.7031 52.1596 86.6005 52.1689C86.5071 52.1689 86.4231 52.1736 86.3485 52.1829C86.1431 52.2109 85.9751 52.2296 85.8445 52.2389C85.7138 52.2576 85.6391 52.2669 85.6205 52.2669C85.1165 52.2669 84.8645 52.0476 84.8645 51.6089C84.8645 51.2169 85.0885 51.0209 85.5365 51.0209C85.5738 51.0303 85.6111 51.0349 85.6485 51.0349C85.6858 51.0349 85.7185 51.0396 85.7465 51.0489C85.7838 51.0489 85.8211 51.0489 85.8585 51.0489C85.9051 51.0583 85.9425 51.0676 85.9705 51.0769C85.9985 51.0769 86.0218 51.0769 86.0405 51.0769C86.0685 51.0863 86.0871 51.0909 86.0965 51.0909C86.1618 51.0909 86.1991 50.9136 86.2085 50.5589C86.2085 50.4469 86.2131 50.3349 86.2225 50.2229C86.2318 50.1016 86.2365 49.9849 86.2365 49.8729L86.2505 49.0749V48.0669C86.2505 47.6469 86.2271 47.3343 86.1805 47.1289C86.1525 46.9889 86.1011 46.8629 86.0265 46.7509C85.9518 46.6296 85.8631 46.5316 85.7605 46.4569V46.4709C85.4898 46.2843 85.2051 46.1909 84.9065 46.1909C84.2811 46.1909 83.8331 46.4103 83.5625 46.8489C83.3758 47.1663 83.2825 47.7263 83.2825 48.5289V50.2929C83.2825 50.6103 83.2918 50.8249 83.3105 50.9369C83.3385 51.0489 83.3805 51.1049 83.4365 51.1049C83.4458 51.1049 83.4738 51.1003 83.5205 51.0909C83.5671 51.0816 83.6185 51.0723 83.6745 51.0629C83.7305 51.0443 83.7818 51.0303 83.8285 51.0209C83.8845 51.0116 83.9498 51.0069 84.0245 51.0069C84.4538 51.0069 84.6685 51.2169 84.6685 51.6369C84.6685 52.0569 84.4165 52.2669 83.9125 52.2669C83.8658 52.2669 83.7725 52.2576 83.6325 52.2389C83.5018 52.2203 83.3525 52.2016 83.1845 52.1829C82.9978 52.1549 82.7925 52.1409 82.5685 52.1409C82.4845 52.1409 82.3818 52.1456 82.2605 52.1549C82.1485 52.1643 82.0131 52.1783 81.8545 52.1969L81.5465 52.2249C81.4625 52.2436 81.3831 52.2529 81.3085 52.2529C81.2338 52.2623 81.1871 52.2669 81.1685 52.2669C80.6458 52.2669 80.3845 52.0523 80.3845 51.6229C80.3845 51.2216 80.5991 51.0209 81.0285 51.0209C81.0751 51.0209 81.1125 51.0256 81.1405 51.0349C81.1778 51.0349 81.2151 51.0396 81.2525 51.0489C81.3738 51.0769 81.4998 51.0909 81.6305 51.0909C81.7425 51.0909 81.8031 50.8996 81.8125 50.5169C81.8125 50.2743 81.8171 50.0316 81.8265 49.7889C81.8358 49.5369 81.8405 49.2896 81.8405 49.0469V47.4369L81.8125 46.9749C81.7938 46.7696 81.7751 46.6249 81.7565 46.5409C81.7378 46.4476 81.7051 46.3916 81.6585 46.3729C81.6398 46.3823 81.5978 46.3916 81.5325 46.4009C81.4671 46.4009 81.4158 46.4056 81.3785 46.4149C81.3225 46.4243 81.2711 46.4336 81.2245 46.4429C81.1778 46.4429 81.1311 46.4429 81.0845 46.4429C80.6178 46.4429 80.3845 46.2376 80.3845 45.8269C80.3845 45.4163 80.6551 45.2109 81.1965 45.2109C81.2338 45.2109 81.2618 45.2109 81.2805 45.2109C81.3085 45.2016 81.3411 45.2063 81.3785 45.2249L81.8405 45.2809C81.8871 45.2809 81.9385 45.2809 81.9945 45.2809C82.0598 45.2716 82.1205 45.2623 82.1765 45.2529C82.2511 45.2436 82.3118 45.2389 82.3585 45.2389C82.4145 45.2296 82.4798 45.2249 82.5545 45.2249ZM92.8545 52.4349C91.8559 52.4349 91.0579 52.0943 90.4605 51.4129C89.8632 50.7316 89.5645 49.8309 89.5645 48.7109C89.5645 47.5816 89.8632 46.6856 90.4605 46.0229C91.0579 45.3323 91.8699 44.9869 92.8965 44.9869C93.9232 44.9869 94.7399 45.3229 95.3465 45.9949C95.9345 46.6576 96.2285 47.5489 96.2285 48.6689C96.2285 49.8076 95.9252 50.7129 95.3185 51.3849C94.7119 52.0849 93.8905 52.4349 92.8545 52.4349ZM92.9245 46.2329C92.3645 46.2329 91.9259 46.4336 91.6085 46.8349C91.3005 47.2363 91.1325 47.8103 91.1045 48.5569V48.7109C91.1045 49.4856 91.2585 50.0923 91.5665 50.5309C91.8745 50.9696 92.3085 51.1889 92.8685 51.1889C93.4379 51.1889 93.8859 50.9743 94.2125 50.5449C94.5485 50.1063 94.7165 49.4903 94.7165 48.6969C94.7165 47.0543 94.1192 46.2329 92.9245 46.2329ZM100.497 52.4349C99.4984 52.4349 98.7004 52.0943 98.1031 51.4129C97.5058 50.7316 97.2071 49.8309 97.2071 48.7109C97.2071 47.5816 97.5058 46.6856 98.1031 46.0229C98.7004 45.3323 99.5124 44.9869 100.539 44.9869C101.566 44.9869 102.382 45.3229 102.989 45.9949C103.577 46.6576 103.871 47.5489 103.871 48.6689C103.871 49.8076 103.568 50.7129 102.961 51.3849C102.354 52.0849 101.533 52.4349 100.497 52.4349ZM100.567 46.2329C100.007 46.2329 99.5684 46.4336 99.2511 46.8349C98.9431 47.2363 98.7751 47.8103 98.7471 48.5569V48.7109C98.7471 49.4856 98.9011 50.0923 99.2091 50.5309C99.5171 50.9696 99.9511 51.1889 100.511 51.1889C101.08 51.1889 101.528 50.9743 101.855 50.5449C102.191 50.1063 102.359 49.4903 102.359 48.6969C102.359 47.0543 101.762 46.2329 100.567 46.2329ZM106.782 45.2249C107.099 45.2249 107.281 45.3649 107.328 45.6449C107.822 45.2063 108.424 44.9869 109.134 44.9869C109.61 44.9869 110.039 45.0709 110.422 45.2389C110.804 45.4069 111.131 45.6449 111.402 45.9529C111.682 46.2609 111.892 46.6389 112.032 47.0869C112.181 47.5256 112.256 48.0203 112.256 48.5709C112.256 49.1309 112.172 49.6489 112.004 50.1249C111.845 50.6009 111.63 51.0163 111.36 51.3709C111.07 51.7256 110.725 51.9916 110.324 52.1689C109.922 52.3463 109.474 52.4349 108.98 52.4349C108.336 52.4349 107.79 52.2669 107.342 51.9309V52.5469C107.342 52.7056 107.342 52.8363 107.342 52.9389C107.342 53.0416 107.346 53.1163 107.356 53.1629V53.1489C107.393 53.3263 107.449 53.4149 107.524 53.4149C107.561 53.4149 107.626 53.4056 107.72 53.3869C107.785 53.3776 107.864 53.3683 107.958 53.3589C108.06 53.3496 108.107 53.3449 108.098 53.3449C108.518 53.3449 108.728 53.5503 108.728 53.9609C108.728 54.3809 108.466 54.5909 107.944 54.5909C107.869 54.5909 107.776 54.5863 107.664 54.5769C107.561 54.5676 107.444 54.5536 107.314 54.5349H107.328C107.113 54.5069 106.828 54.4929 106.474 54.4929C106.38 54.4929 106.292 54.4929 106.208 54.4929C106.124 54.5023 106.044 54.5116 105.97 54.5209C105.951 54.5209 105.932 54.5209 105.914 54.5209C105.904 54.5303 105.89 54.5349 105.872 54.5349C105.732 54.5536 105.606 54.5676 105.494 54.5769C105.382 54.5863 105.298 54.5909 105.242 54.5909C105.027 54.5909 104.845 54.5256 104.696 54.3949C104.546 54.2736 104.472 54.1196 104.472 53.9329C104.472 53.5316 104.696 53.3309 105.144 53.3309C105.19 53.3309 105.237 53.3309 105.284 53.3309C105.34 53.3403 105.396 53.3496 105.452 53.3589C105.573 53.3963 105.666 53.4149 105.732 53.4149C105.769 53.4149 105.797 53.3776 105.816 53.3029C105.834 53.2003 105.848 53.0323 105.858 52.7989C105.867 52.5749 105.876 52.2763 105.886 51.9029C105.886 51.0536 105.886 50.2043 105.886 49.3549C105.895 48.4963 105.9 47.6423 105.9 46.7929C105.89 46.5036 105.853 46.3589 105.788 46.3589C105.741 46.3589 105.671 46.3729 105.578 46.4009C105.512 46.4196 105.452 46.4336 105.396 46.4429C105.34 46.4523 105.274 46.4569 105.2 46.4569C104.724 46.4569 104.486 46.2469 104.486 45.8269C104.486 45.4256 104.756 45.2249 105.298 45.2249C105.344 45.2249 105.4 45.2249 105.466 45.2249C105.531 45.2249 105.587 45.2296 105.634 45.2389C105.671 45.2389 105.704 45.2436 105.732 45.2529C105.769 45.2529 105.802 45.2529 105.83 45.2529C105.895 45.2623 105.946 45.2669 105.984 45.2669C106.03 45.2669 106.068 45.2669 106.096 45.2669C106.124 45.2669 106.17 45.2669 106.236 45.2669C106.301 45.2576 106.366 45.2483 106.432 45.2389C106.506 45.2296 106.572 45.2249 106.628 45.2249C106.684 45.2249 106.735 45.2249 106.782 45.2249ZM107.538 47.4369C107.491 47.6236 107.458 47.8196 107.44 48.0249C107.421 48.2209 107.407 48.4309 107.398 48.6549C107.398 48.6829 107.398 48.7203 107.398 48.7669C107.398 48.8043 107.393 48.8416 107.384 48.8789V49.0469C107.384 49.3363 107.393 49.5836 107.412 49.7889C107.44 49.9943 107.477 50.1623 107.524 50.2929C107.561 50.4143 107.622 50.5263 107.706 50.6289C107.799 50.7316 107.902 50.8249 108.014 50.9089C108.144 50.9929 108.289 51.0629 108.448 51.1189C108.606 51.1656 108.774 51.1889 108.952 51.1889C109.521 51.1889 109.96 50.9743 110.268 50.5449C110.576 50.1156 110.73 49.4996 110.73 48.6969C110.73 47.0543 110.179 46.2329 109.078 46.2329C108.714 46.2329 108.382 46.3449 108.084 46.5689C107.794 46.7929 107.612 47.0823 107.538 47.4369Z" fill="#983A68"/>
<path d="M47.848 78.1089V76.9889L47.834 74.8469C47.834 74.3056 47.68 74.0349 47.372 74.0349C47.316 74.0349 47.2413 74.0443 47.148 74.0629C46.9893 74.0909 46.8587 74.1049 46.756 74.1049C46.5787 74.1049 46.4247 74.0489 46.294 73.9369C46.1727 73.8156 46.112 73.6616 46.112 73.4749C46.112 73.0363 46.378 72.8169 46.91 72.8169C46.9287 72.8169 46.9567 72.8169 46.994 72.8169C47.0407 72.8169 47.0873 72.8216 47.134 72.8309L48.044 72.9289C48.2213 72.9476 48.4033 72.9616 48.59 72.9709C48.786 72.9803 48.9913 72.9849 49.206 72.9849C49.4393 72.9849 49.934 72.9709 50.69 72.9429L52.258 72.8869H52.244L52.958 72.8449C53.0047 72.8356 53.0653 72.8309 53.14 72.8309C53.224 72.8309 53.3033 72.8309 53.378 72.8309C54.0127 72.8309 54.33 73.1063 54.33 73.6569C54.33 73.7503 54.3207 73.8576 54.302 73.9789C54.2927 74.1003 54.2787 74.2449 54.26 74.4129C54.2413 74.5809 54.2227 74.7256 54.204 74.8469C54.1947 74.9683 54.19 75.0663 54.19 75.1409C54.19 75.2156 54.19 75.2903 54.19 75.3649C54.1993 75.4396 54.2087 75.5283 54.218 75.6309C54.2273 75.7336 54.232 75.8409 54.232 75.9529C54.2413 76.0649 54.246 76.1723 54.246 76.2749C54.246 76.7696 54.008 77.0169 53.532 77.0169C53.0467 77.0169 52.804 76.7416 52.804 76.1909C52.804 76.1256 52.804 76.0463 52.804 75.9529C52.804 75.8503 52.8087 75.7336 52.818 75.6029C52.818 75.5749 52.818 75.5469 52.818 75.5189C52.8273 75.4816 52.832 75.4536 52.832 75.4349C52.8413 75.3509 52.846 75.2763 52.846 75.2109C52.846 75.1363 52.846 75.0756 52.846 75.0289C52.846 74.6276 52.7573 74.3896 52.58 74.3149C52.3093 74.1936 51.7027 74.1329 50.76 74.1329C50.004 74.1329 49.5793 74.1889 49.486 74.3009C49.43 74.3756 49.402 74.7443 49.402 75.4069V76.4009C49.402 76.5596 49.4253 76.6623 49.472 76.7089C49.5187 76.7463 49.64 76.7649 49.836 76.7649H50.284C50.7133 76.7649 50.928 76.6156 50.928 76.3169C50.928 76.2609 50.9233 76.2003 50.914 76.1349C50.9047 76.0603 50.8953 75.9856 50.886 75.9109C50.8767 75.8363 50.8673 75.7663 50.858 75.7009C50.858 75.6263 50.858 75.5656 50.858 75.5189C50.858 75.0523 51.096 74.8189 51.572 74.8189C52.0293 74.8189 52.258 75.0803 52.258 75.6029C52.258 75.6216 52.258 75.6496 52.258 75.6869C52.258 75.7149 52.2533 75.7476 52.244 75.7849C52.244 75.8036 52.2393 75.8269 52.23 75.8549C52.23 75.8829 52.23 75.9156 52.23 75.9529L52.146 76.6809C52.1273 76.8396 52.1133 76.9749 52.104 77.0869C52.0947 77.1989 52.09 77.2923 52.09 77.3669C52.09 77.7216 52.132 78.1789 52.216 78.7389C52.244 78.9349 52.258 79.1263 52.258 79.3129C52.258 79.7889 52.02 80.0269 51.544 80.0269C51.0867 80.0269 50.858 79.7749 50.858 79.2709C50.858 79.2243 50.858 79.1636 50.858 79.0889C50.858 79.0143 50.8627 78.9349 50.872 78.8509C50.8813 78.7669 50.886 78.6923 50.886 78.6269C50.8953 78.5616 50.9 78.5056 50.9 78.4589C50.9 78.2536 50.8487 78.1229 50.746 78.0669C50.6993 78.0296 50.5453 78.0109 50.284 78.0109H49.864C49.6213 78.0109 49.4813 78.0296 49.444 78.0669C49.416 78.0949 49.402 78.2489 49.402 78.5289V80.1249C49.402 80.4796 49.43 80.7176 49.486 80.8389C49.5513 80.9603 49.6727 81.0209 49.85 81.0209C49.8687 81.0209 49.9013 81.0209 49.948 81.0209C49.9947 81.0209 50.0507 81.0163 50.116 81.0069C50.1813 81.0069 50.242 81.0069 50.298 81.0069C50.354 80.9976 50.4007 80.9929 50.438 80.9929C51.0073 80.9929 51.292 81.2076 51.292 81.6369C51.292 81.8236 51.222 81.9776 51.082 82.0989C50.942 82.2203 50.774 82.2809 50.578 82.2809C50.4753 82.2809 50.3727 82.2716 50.27 82.2529C50.1673 82.2436 50.046 82.2296 49.906 82.2109C49.71 82.1736 49.5 82.1503 49.276 82.1409C49.0613 82.1223 48.8373 82.1129 48.604 82.1129C48.296 82.1129 47.96 82.1409 47.596 82.1969L47.134 82.2669C47.0967 82.2669 47.064 82.2716 47.036 82.2809H46.938C46.3873 82.2809 46.112 82.0569 46.112 81.6089C46.112 81.1983 46.3267 80.9929 46.756 80.9929C46.7653 80.9929 46.7793 80.9976 46.798 81.0069C46.8167 81.0069 46.84 81.0069 46.868 81.0069C46.896 81.0069 46.9287 81.0069 46.966 81.0069C47.0127 81.0069 47.064 81.0116 47.12 81.0209C47.1667 81.0303 47.2133 81.0396 47.26 81.0489C47.3067 81.0489 47.3487 81.0489 47.386 81.0489C47.5447 81.0489 47.652 80.9929 47.708 80.8809C47.7733 80.7596 47.8107 80.5449 47.82 80.2369L47.848 78.1089ZM57.1137 75.2249C57.4217 75.2249 57.6037 75.3463 57.6597 75.5889C58.117 75.1876 58.663 74.9869 59.2977 74.9869C59.643 74.9869 59.9557 75.0383 60.2357 75.1409C60.5157 75.2343 60.7584 75.3743 60.9637 75.5609C61.169 75.7383 61.3277 75.9529 61.4397 76.2049C61.5517 76.4569 61.6077 76.7369 61.6077 77.0449C61.6077 77.4929 61.491 77.8569 61.2577 78.1369C61.0244 78.4076 60.7117 78.5429 60.3197 78.5429C60.049 78.5429 59.8204 78.4636 59.6337 78.3049C59.4564 78.1463 59.3677 77.9503 59.3677 77.7169C59.3677 77.5303 59.4424 77.3623 59.5917 77.2129C59.7504 77.0636 59.9277 76.9889 60.1237 76.9889C60.1424 76.9889 60.1377 76.9843 60.1097 76.9749C60.091 76.9656 60.105 76.9703 60.1517 76.9889V76.9189C60.1517 76.7136 60.0584 76.5409 59.8717 76.4009C59.6944 76.2609 59.4704 76.1909 59.1997 76.1909C58.6117 76.1909 58.2197 76.4616 58.0237 77.0029C57.893 77.3763 57.8277 77.9269 57.8277 78.6549V79.5369C57.8277 79.8076 57.8277 80.0223 57.8277 80.1809C57.8277 80.3396 57.8324 80.4376 57.8417 80.4749C57.8884 80.8856 57.949 81.0909 58.0237 81.0909C58.0797 81.0909 58.131 81.0909 58.1777 81.0909C58.2244 81.0816 58.271 81.0723 58.3177 81.0629C58.439 81.0256 58.5464 81.0069 58.6397 81.0069C59.069 81.0069 59.2837 81.2076 59.2837 81.6089C59.2837 82.0476 59.027 82.2669 58.5137 82.2669H58.4717C58.397 82.2669 58.3037 82.2623 58.1917 82.2529C58.089 82.2436 57.9677 82.2296 57.8277 82.2109C57.557 82.1829 57.3657 82.1689 57.2537 82.1689C57.0764 82.1689 56.9224 82.1736 56.7917 82.1829C56.661 82.1829 56.5444 82.1876 56.4417 82.1969L55.6857 82.2669C55.1724 82.2669 54.9157 82.0476 54.9157 81.6089C54.9157 81.2169 55.1584 81.0209 55.6437 81.0209C55.6904 81.0209 55.7277 81.0209 55.7557 81.0209C55.793 81.0116 55.835 81.0163 55.8817 81.0349L56.0497 81.0769H56.1617C56.171 81.0863 56.185 81.0909 56.2037 81.0909H56.2177C56.3017 81.0909 56.3484 80.9509 56.3577 80.6709C56.3577 80.5589 56.3624 80.4469 56.3717 80.3349C56.381 80.2229 56.3857 80.1109 56.3857 79.9989L56.3437 76.9889C56.325 76.6436 56.2784 76.4476 56.2037 76.4009C56.185 76.4009 56.1384 76.4056 56.0637 76.4149C55.989 76.4243 55.9377 76.4289 55.9097 76.4289H55.9377C55.8257 76.4569 55.709 76.4709 55.5877 76.4709C55.149 76.4709 54.9297 76.2656 54.9297 75.8549C54.9297 75.4256 55.191 75.2109 55.7137 75.2109C55.7324 75.2203 55.7884 75.2296 55.8817 75.2389C55.975 75.2389 56.059 75.2436 56.1337 75.2529C56.2084 75.2623 56.2784 75.2716 56.3437 75.2809C56.4184 75.2809 56.4744 75.2809 56.5117 75.2809C56.5304 75.2809 56.5537 75.2809 56.5817 75.2809C56.619 75.2809 56.661 75.2763 56.7077 75.2669C56.7264 75.2669 56.7404 75.2669 56.7497 75.2669C56.7684 75.2576 56.7917 75.2529 56.8197 75.2529C56.913 75.2343 57.011 75.2249 57.1137 75.2249ZM65.3907 82.4349C64.392 82.4349 63.594 82.0943 62.9967 81.4129C62.3993 80.7316 62.1007 79.8309 62.1007 78.7109C62.1007 77.5816 62.3993 76.6856 62.9967 76.0229C63.594 75.3323 64.406 74.9869 65.4327 74.9869C66.4593 74.9869 67.276 75.3229 67.8827 75.9949C68.4707 76.6576 68.7647 77.5489 68.7647 78.6689C68.7647 79.8076 68.4613 80.7129 67.8547 81.3849C67.248 82.0849 66.4267 82.4349 65.3907 82.4349ZM65.4607 76.2329C64.9007 76.2329 64.462 76.4336 64.1447 76.8349C63.8367 77.2363 63.6687 77.8103 63.6407 78.5569V78.7109C63.6407 79.4856 63.7947 80.0923 64.1027 80.5309C64.4107 80.9696 64.8447 81.1889 65.4047 81.1889C65.974 81.1889 66.422 80.9743 66.7487 80.5449C67.0847 80.1063 67.2527 79.4903 67.2527 78.6969C67.2527 77.0543 66.6553 76.2329 65.4607 76.2329ZM71.7032 75.2249C72.0206 75.2249 72.2072 75.3649 72.2632 75.6449C72.5152 75.4023 72.7719 75.2343 73.0332 75.1409C73.3039 75.0383 73.6306 74.9869 74.0132 74.9869C74.4519 74.9869 74.8252 75.0523 75.1332 75.1829C75.4412 75.3136 75.7072 75.5283 75.9312 75.8269C76.2019 75.5656 76.5052 75.3603 76.8412 75.2109C77.1866 75.0616 77.5832 74.9869 78.0312 74.9869C78.5632 74.9869 79.0486 75.0989 79.4872 75.3229C79.9632 75.5936 80.3039 75.9623 80.5092 76.4289C80.5746 76.5876 80.6212 76.7883 80.6492 77.0309C80.6772 77.2736 80.6912 77.5536 80.6912 77.8709V79.1589L80.6772 80.1529C80.6772 80.3303 80.6772 80.4703 80.6772 80.5729C80.6772 80.6756 80.6819 80.7503 80.6912 80.7969C80.7192 81.0023 80.7566 81.1049 80.8032 81.1049C80.8499 81.1049 80.9199 81.0956 81.0132 81.0769C81.0786 81.0769 81.1579 81.0723 81.2512 81.0629C81.3539 81.0536 81.3959 81.0443 81.3772 81.0349C81.8252 81.0536 82.0492 81.2449 82.0492 81.6089C82.0492 82.0476 81.8019 82.2669 81.3072 82.2669C81.2326 82.2669 81.1392 82.2623 81.0272 82.2529C80.9246 82.2436 80.8032 82.2296 80.6632 82.2109C80.3926 82.1829 80.1966 82.1689 80.0752 82.1689C80.0099 82.1689 79.9212 82.1736 79.8092 82.1829C79.6972 82.1829 79.5759 82.1923 79.4452 82.2109C79.3146 82.2296 79.1886 82.2436 79.0672 82.2529C78.9459 82.2623 78.8479 82.2669 78.7732 82.2669C78.2506 82.2669 77.9892 82.0476 77.9892 81.6089C77.9892 81.2263 78.2039 81.0349 78.6332 81.0349C78.6519 81.0349 78.6659 81.0396 78.6752 81.0489C78.6939 81.0489 78.7172 81.0489 78.7452 81.0489C78.7639 81.0489 78.7919 81.0536 78.8292 81.0629C78.8759 81.0629 78.9179 81.0629 78.9552 81.0629C78.9926 81.0723 79.0439 81.0769 79.1092 81.0769C79.1466 81.0769 79.1699 81.0489 79.1792 80.9929C79.2166 80.8436 79.2399 80.4843 79.2492 79.9149C79.2492 79.7843 79.2492 79.6489 79.2492 79.5089C79.2586 79.3689 79.2632 79.2336 79.2632 79.1029V78.2349C79.2632 77.6563 79.2212 77.2409 79.1372 76.9889C79.0626 76.7276 78.9179 76.5316 78.7032 76.4009C78.4886 76.2609 78.2366 76.1909 77.9472 76.1909C77.4246 76.1909 77.0512 76.3776 76.8272 76.7509C76.6499 77.0683 76.5612 77.6376 76.5612 78.4589V79.3969C76.5612 79.7889 76.5659 80.1156 76.5752 80.3769C76.5846 80.6289 76.5986 80.8109 76.6172 80.9229C76.6359 81.0256 76.6686 81.0769 76.7152 81.0769C76.7246 81.0769 76.7479 81.0769 76.7852 81.0769C76.8226 81.0769 76.8646 81.0723 76.9112 81.0629C76.9579 81.0536 77.0139 81.0443 77.0792 81.0349C77.1539 81.0256 77.1866 81.0209 77.1772 81.0209C77.3639 81.0209 77.5179 81.0816 77.6392 81.2029C77.7699 81.3149 77.8352 81.4596 77.8352 81.6369C77.8352 82.0569 77.5552 82.2669 76.9952 82.2669C76.9112 82.2669 76.8132 82.2623 76.7012 82.2529C76.5986 82.2436 76.4819 82.2296 76.3512 82.2109C76.2206 82.1923 76.1086 82.1783 76.0152 82.1689C75.9312 82.1596 75.8612 82.1549 75.8052 82.1549C75.7306 82.1549 75.6372 82.1596 75.5252 82.1689C75.4226 82.1783 75.3199 82.1923 75.2172 82.2109C75.1146 82.2296 75.0119 82.2436 74.9092 82.2529C74.8066 82.2623 74.7086 82.2669 74.6152 82.2669C74.1019 82.2669 73.8452 82.0523 73.8452 81.6229C73.8452 81.2309 74.0552 81.0349 74.4752 81.0349C74.5872 81.0349 74.6806 81.0443 74.7552 81.0629C74.8112 81.0723 74.8579 81.0816 74.8952 81.0909C74.9326 81.0909 74.9606 81.0909 74.9792 81.0909C75.0352 81.0909 75.0679 80.9276 75.0772 80.6009C75.0772 80.4983 75.0772 80.3956 75.0772 80.2929C75.0866 80.1903 75.0912 80.0876 75.0912 79.9849C75.1006 79.8823 75.1052 79.7843 75.1052 79.6909C75.1052 79.5883 75.1052 79.4903 75.1052 79.3969C75.1146 79.3223 75.1192 79.2663 75.1192 79.2289C75.1192 79.1916 75.1192 79.1683 75.1192 79.1589V78.0669C75.1192 77.7123 75.0959 77.4183 75.0492 77.1849C75.0119 76.9423 74.9466 76.7463 74.8532 76.5969C74.7599 76.4476 74.6386 76.3449 74.4892 76.2889C74.3399 76.2236 74.1532 76.1909 73.9292 76.1909C73.4159 76.1909 73.0332 76.3776 72.7812 76.7509C72.5479 77.0496 72.4312 77.6143 72.4312 78.4449V80.2089C72.4312 80.5636 72.4359 80.7643 72.4452 80.8109C72.4732 80.9976 72.4966 81.0909 72.5152 81.0909C72.5059 81.0909 72.5806 81.0769 72.7392 81.0489C72.7766 81.0489 72.8092 81.0443 72.8372 81.0349H72.9632C73.4579 81.0349 73.7052 81.2403 73.7052 81.6509C73.7052 82.0616 73.4299 82.2669 72.8792 82.2669C72.7206 82.2669 72.5246 82.2529 72.2912 82.2249C72.1419 82.2063 72.0066 82.1923 71.8852 82.1829C71.7639 82.1736 71.6519 82.1689 71.5492 82.1689C71.4466 82.1689 71.2646 82.1829 71.0032 82.2109C70.8072 82.2296 70.6486 82.2436 70.5272 82.2529C70.4152 82.2623 70.3359 82.2669 70.2892 82.2669C69.7852 82.2669 69.5332 82.0523 69.5332 81.6229C69.5332 81.2309 69.7759 81.0349 70.2612 81.0349H70.3592C70.3872 81.0443 70.4152 81.0489 70.4432 81.0489L70.8352 81.1189C70.9099 81.0723 70.9519 80.9183 70.9612 80.6569C70.9612 80.5263 70.9659 80.4003 70.9752 80.2789C70.9846 80.1576 70.9892 80.0316 70.9892 79.9009V77.8709C70.9892 77.5069 70.9799 77.2129 70.9612 76.9889C70.9519 76.7649 70.9379 76.6063 70.9192 76.5129C70.9099 76.4196 70.8772 76.3729 70.8212 76.3729C70.8212 76.3729 70.7746 76.3869 70.6812 76.4149L70.4572 76.4429C70.4386 76.4429 70.4246 76.4476 70.4152 76.4569C70.4152 76.4569 70.4106 76.4569 70.4012 76.4569H70.4432C70.4152 76.4663 70.3826 76.4709 70.3452 76.4709C70.3079 76.4709 70.2752 76.4709 70.2472 76.4709C69.7712 76.4709 69.5332 76.2656 69.5332 75.8549C69.5332 75.4349 69.7852 75.2249 70.2892 75.2249C70.3452 75.2249 70.4059 75.2296 70.4712 75.2389C70.5366 75.2389 70.6066 75.2436 70.6812 75.2529C70.7559 75.2623 70.8352 75.2716 70.9192 75.2809C71.0032 75.2809 71.0732 75.2809 71.1292 75.2809C71.1572 75.2809 71.1899 75.2763 71.2272 75.2669H71.3672L71.7032 75.2249ZM84.2155 82.4349C83.9168 82.4349 83.6648 82.3369 83.4595 82.1409C83.2542 81.9449 83.1515 81.6976 83.1515 81.3989C83.1515 81.1096 83.2542 80.8669 83.4595 80.6709C83.6648 80.4656 83.9168 80.3629 84.2155 80.3629C84.5142 80.3629 84.7662 80.4656 84.9715 80.6709C85.1768 80.8669 85.2795 81.1096 85.2795 81.3989C85.2795 81.6976 85.1768 81.9449 84.9715 82.1409C84.7662 82.3369 84.5142 82.4349 84.2155 82.4349ZM84.2155 77.8989C83.9168 77.8989 83.6648 77.8009 83.4595 77.6049C83.2542 77.3996 83.1515 77.1523 83.1515 76.8629C83.1515 76.5736 83.2542 76.3309 83.4595 76.1349C83.6648 75.9296 83.9168 75.8269 84.2155 75.8269C84.5142 75.8269 84.7662 75.9296 84.9715 76.1349C85.1768 76.3309 85.2795 76.5736 85.2795 76.8629C85.2795 77.1523 85.1768 77.3996 84.9715 77.6049C84.7662 77.8009 84.5142 77.8989 84.2155 77.8989Z" fill="#983A68"/>
</g>
<g clip-path="url(#clip2_889_1160)">
<g filter="url(#filter1_i_889_1160)">
<rect x="12" y="13.6621" width="292" height="1011" rx="32" fill="white"/>
</g>
<rect x="13" y="14.6621" width="290" height="1009" rx="31" stroke="#475569" stroke-opacity="0.06" stroke-width="2"/>
</g>
<g filter="url(#filter2_f_889_1160)">
<path d="M239.737 533.456C240.724 533.052 241.666 534.122 241.174 535.087L239.4 538.568C239.245 538.872 239.227 539.23 239.351 539.548L240.769 543.187C241.163 544.199 240.115 545.17 239.173 544.665L235.788 542.85C235.492 542.691 235.144 542.673 234.833 542.8L231.278 544.258C230.291 544.662 229.349 543.592 229.841 542.627L231.615 539.146C231.77 538.842 231.788 538.484 231.664 538.166L230.246 534.527C229.852 533.515 230.901 532.544 231.842 533.049L235.227 534.864C235.523 535.023 235.872 535.041 236.182 534.914L239.737 533.456Z" fill="white"/>
</g>
<g filter="url(#filter3_f_889_1160)">
<path d="M70.7375 500.456C71.724 500.052 72.6662 501.122 72.174 502.087L70.3999 505.568C70.245 505.872 70.2271 506.23 70.3509 506.548L71.7687 510.187C72.1629 511.199 71.1146 512.17 70.1733 511.665L66.788 509.85C66.4923 509.691 66.1435 509.673 65.8331 509.8L62.2776 511.258C61.2911 511.662 60.3489 510.592 60.8411 509.627L62.6152 506.146C62.7701 505.842 62.788 505.484 62.6642 505.166L61.2464 501.527C60.8522 500.515 61.9005 499.544 62.8418 500.049L66.2271 501.864C66.5227 502.023 66.8716 502.041 67.182 501.914L70.7375 500.456Z" fill="white"/>
</g>
</g>
<defs>
<filter id="filter0_i_889_1160" x="12" y="15.2109" width="292" height="700" filterUnits="userSpaceOnUse" color-interpolation-filters="sRGB">
<feFlood flood-opacity="0" result="BackgroundImageFix"/>
<feBlend mode="normal" in="SourceGraphic" in2="BackgroundImageFix" result="shape"/>
<feColorMatrix in="SourceAlpha" type="matrix" values="0 0 0 0 0 0 0 0 0 0 0 0 0 0 0 0 0 0 127 0" result="hardAlpha"/>
<feOffset dy="-1.5625"/>
<feComposite in2="hardAlpha" operator="arithmetic" k2="-1" k3="1"/>
<feColorMatrix type="matrix" values="0 0 0 0 1 0 0 0 0 1 0 0 0 0 1 0 0 0 0.5 0"/>
<feBlend mode="normal" in2="shape" result="effect1_innerShadow_889_1160"/>
</filter>
<filter id="filter1_i_889_1160" x="12" y="13.6621" width="292" height="1011" filterUnits="userSpaceOnUse" color-interpolation-filters="sRGB">
<feFlood flood-opacity="0" result="BackgroundImageFix"/>
<feBlend mode="normal" in="SourceGraphic" in2="BackgroundImageFix" result="shape"/>
<feColorMatrix in="SourceAlpha" type="matrix" values="0 0 0 0 0 0 0 0 0 0 0 0 0 0 0 0 0 0 127 0" result="hardAlpha"/>
<feOffset dy="-1.5625"/>
<feComposite in2="hardAlpha" operator="arithmetic" k2="-1" k3="1"/>
<feColorMatrix type="matrix" values="0 0 0 0 1 0 0 0 0 1 0 0 0 0 1 0 0 0 0.5 0"/>
<feBlend mode="normal" in2="shape" result="effect1_innerShadow_889_1160"/>
</filter>
<filter id="filter2_f_889_1160" x="228.142" y="531.345" width="14.732" height="15.0225" filterUnits="userSpaceOnUse" color-interpolation-filters="sRGB">
<feFlood flood-opacity="0" result="BackgroundImageFix"/>
<feBlend mode="normal" in="SourceGraphic" in2="BackgroundImageFix" result="shape"/>
<feGaussianBlur stdDeviation="0.782484" result="effect1_foregroundBlur_889_1160"/>
</filter>
<filter id="filter3_f_889_1160" x="59.1416" y="498.345" width="14.732" height="15.0225" filterUnits="userSpaceOnUse" color-interpolation-filters="sRGB">
<feFlood flood-opacity="0" result="BackgroundImageFix"/>
<feBlend mode="normal" in="SourceGraphic" in2="BackgroundImageFix" result="shape"/>
<feGaussianBlur stdDeviation="0.782484" result="effect1_foregroundBlur_889_1160"/>
</filter>
<clipPath id="clip0_889_1160">
<rect width="316" height="1018" fill="white"/>
</clipPath>
<clipPath id="clip1_889_1160">
<rect x="12" y="15.2109" width="292" height="819.08" rx="32" fill="white"/>
</clipPath>
<clipPath id="clip2_889_1160">
<rect x="12" y="14.041" width="292" height="1003.96" rx="32" fill="white"/>
</clipPath>
</defs>
</svg>
